<?xml version="1.0" standalone="no"?>
<!DOCTYPE svg PUBLIC "-//W3C//DTD SVG 20010904//EN"
 "http://www.w3.org/TR/2001/REC-SVG-20010904/DTD/svg10.dtd">
<svg version="1.0" xmlns="http://www.w3.org/2000/svg"
 width="928.000000pt" height="928.000000pt" viewBox="0 0 928.000000 928.000000"
 preserveAspectRatio="xMidYMid meet">
<metadata>
Created by potrace 1.14, written by Peter Selinger 2001-2017
</metadata>
<g transform="translate(0.000000,928.000000) scale(0.100000,-0.100000)"
fill="#000000" stroke="none">
<path d="M4805 7148 c-151 -23 -154 -23 -161 -31 -4 -3 -8 -50 -10 -104 -1
-54 -5 -181 -9 -283 -6 -196 -12 -388 -20 -665 -5 -184 -14 -455 -20 -655 -2
-69 -7 -210 -10 -314 -3 -104 -7 -192 -10 -194 -2 -2 -2 294 0 659 2 365 5
861 6 1102 1 240 0 440 -3 443 -5 5 -54 -2 -148 -21 -14 -3 -63 -12 -110 -20
-47 -8 -96 -17 -110 -20 -77 -14 -249 -45 -275 -50 -100 -19 -203 -38 -220
-40 -19 -2 -79 -13 -120 -22 -11 -2 -35 -6 -54 -9 -19 -2 -53 -9 -78 -14 -24
-6 -60 -13 -81 -16 -40 -6 -64 -10 -99 -18 -11 -2 -43 -8 -70 -12 -26 -5 -50
-9 -53 -9 -3 -1 -27 -5 -53 -10 -27 -4 -59 -17 -72 -29 -25 -23 -63 -91 -70
-124 -8 -45 -38 -83 -70 -88 -5 -1 -75 -22 -155 -47 -80 -26 -157 -49 -172
-53 -16 -3 -28 -10 -28 -16 0 -5 4 -6 10 -3 5 3 51 8 102 10 51 3 131 7 178
10 47 3 135 8 195 11 61 3 130 7 155 9 25 1 106 6 180 9 l135 7 -83 -82 -83
-81 -92 -3 c-51 -2 -186 -7 -302 -10 -115 -4 -257 -8 -315 -10 -58 -2 -208 -7
-335 -11 -126 -4 -260 -7 -297 -8 -38 0 -68 -4 -68 -8 0 -4 10 -9 23 -9 12 -1
31 -3 42 -5 11 -2 36 -6 55 -9 19 -2 46 -8 60 -11 14 -4 33 -6 42 -5 14 2 18
-6 19 -36 2 -111 4 -126 19 -129 14 -2 29 -5 110 -20 19 -3 51 -8 70 -10 19
-2 48 -6 65 -10 16 -4 39 -8 50 -10 11 -1 90 -14 175 -28 85 -14 172 -28 194
-32 21 -3 48 -8 60 -10 20 -4 56 -10 121 -20 17 -2 43 -7 58 -10 16 -3 39 -8
53 -10 13 -2 34 -5 47 -8 69 -12 148 -18 145 -10 -2 8 30 108 52 159 7 18 20
51 25 65 1 3 5 12 8 20 4 8 22 60 42 115 19 55 39 109 44 120 5 11 17 41 27
68 9 26 20 47 25 47 4 0 45 -9 91 -20 46 -12 94 -23 108 -26 14 -3 33 -7 42
-10 9 -3 25 -7 35 -9 10 -2 38 -8 63 -14 25 -7 54 -14 65 -16 179 -40 285 -70
286 -79 0 -6 2 -370 4 -808 l3 -797 -36 5 c-21 2 -64 9 -97 14 -33 5 -80 12
-105 15 -41 5 -137 19 -200 30 -14 2 -43 7 -65 10 -22 3 -52 8 -67 11 l-27 5
4 132 c3 73 7 204 9 292 9 302 18 540 20 542 1 1 31 -3 66 -8 36 -6 81 -12
100 -13 19 -2 49 -6 65 -9 17 -4 48 -9 70 -12 22 -3 61 -8 88 -11 l47 -6 1 33
c0 19 2 111 4 204 2 94 6 182 8 197 6 31 -8 47 -50 54 -15 3 -35 7 -43 9 -8 3
-32 7 -54 11 -21 3 -48 8 -60 10 -11 3 -32 7 -46 10 -14 2 -47 9 -75 14 -27 6
-61 12 -75 15 -14 3 -49 10 -78 16 -48 10 -55 9 -67 -8 -8 -10 -15 -24 -15
-31 0 -6 -16 -69 -36 -140 -20 -70 -37 -131 -38 -137 -1 -5 -10 -35 -19 -65
-9 -30 -20 -71 -25 -90 -7 -30 -12 -35 -38 -34 -33 0 -148 15 -231 29 -21 3
-53 8 -71 10 -46 6 -103 15 -132 20 -13 2 -46 7 -74 10 -28 3 -58 8 -66 10 -8
2 -37 7 -65 10 -27 3 -61 7 -75 10 -14 2 -43 7 -65 10 -22 3 -51 7 -65 10 -14
2 -61 9 -105 15 -44 6 -91 13 -105 16 -14 2 -47 7 -75 10 -27 3 -56 7 -63 9
-6 3 -12 1 -12 -3 0 -4 57 -20 128 -36 70 -16 153 -35 184 -43 32 -8 66 -16
75 -18 10 -2 74 -17 143 -34 69 -16 189 -45 267 -63 79 -18 143 -37 143 -41 0
-5 -3 -6 -7 -4 -7 4 -147 26 -268 42 -84 11 -132 17 -154 21 -13 2 -45 6 -70
9 -70 9 -104 14 -131 19 -26 5 -112 16 -165 21 -16 1 -48 6 -70 9 -22 4 -67
11 -100 16 -68 11 -80 12 -74 5 4 -4 168 -49 219 -60 8 -2 15 -4 15 -5 0 -2
10 -4 50 -13 11 -3 58 -15 105 -27 47 -12 90 -23 95 -24 6 -1 16 -5 23 -9 6
-5 12 -6 12 -4 0 3 33 -4 73 -14 39 -11 79 -21 87 -23 8 -2 35 -9 60 -16 25
-7 56 -14 69 -17 14 -2 28 -6 33 -9 8 -5 29 -11 78 -20 14 -2 32 -7 40 -11 18
-8 17 -7 62 -16 21 -4 40 -12 43 -16 2 -5 -12 -5 -33 -1 -20 5 -59 11 -87 14
-27 3 -61 8 -75 11 -14 3 -47 8 -75 11 -27 2 -57 6 -65 9 -8 2 -42 7 -75 11
-33 3 -69 8 -80 11 -11 2 -40 6 -65 9 -25 2 -56 6 -70 9 -14 2 -47 7 -75 10
-27 3 -72 10 -100 15 -27 5 -71 12 -97 15 -50 5 -104 12 -153 20 -55 8 -99 14
-148 20 -27 2 -53 8 -59 11 -6 4 -8 2 -4 -4 6 -9 20 -14 81 -26 48 -10 215
-48 265 -61 14 -3 34 -7 45 -9 11 -2 50 -11 87 -20 125 -30 193 -45 227 -51
19 -3 37 -8 41 -10 4 -2 21 -7 38 -10 26 -4 249 -55 317 -72 11 -3 43 -9 70
-15 28 -5 55 -14 60 -20 7 -7 7 -9 0 -5 -6 3 -37 8 -70 12 -33 3 -69 8 -80 10
-23 5 -107 16 -150 20 -16 2 -30 4 -30 5 0 0 -18 3 -40 5 -22 2 -58 6 -80 9
-22 3 -58 8 -80 10 -22 3 -56 7 -75 10 -42 6 -126 17 -160 21 -72 8 -136 17
-142 22 -5 2 -8 -1 -8 -6 0 -6 6 -11 13 -12 6 0 19 -2 27 -4 63 -16 268 -67
282 -70 10 -2 111 -27 225 -55 115 -29 215 -53 223 -55 8 -2 35 -8 60 -15 25
-7 56 -14 70 -17 14 -2 30 -9 35 -15 7 -7 4 -9 -10 -5 -11 3 -49 9 -85 12 -36
3 -83 9 -105 11 -22 3 -60 7 -85 9 -56 4 -169 16 -193 21 -10 1 -15 -1 -12 -7
4 -5 12 -9 18 -9 7 0 93 -25 192 -56 99 -31 207 -64 240 -74 72 -22 114 -38
100 -40 -45 -7 -70 -12 -74 -15 -2 -3 15 -24 38 -48 87 -90 147 -210 177 -357
30 -149 22 -443 -16 -589 -13 -48 -20 -45 106 -53 l52 -3 33 -85 34 -85 65 -1
c36 -1 184 -5 330 -8 146 -4 342 -9 435 -11 195 -4 606 -14 840 -20 162 -4
526 -13 845 -20 290 -7 603 -15 815 -20 110 -3 304 -7 430 -10 127 -3 318 -7
425 -10 107 -3 285 -8 395 -10 110 -2 297 -7 415 -10 507 -13 674 -15 669 -11
-3 3 -27 8 -55 11 -27 3 -56 8 -64 10 -8 3 -33 7 -55 10 -22 3 -51 8 -65 10
-14 3 -42 8 -64 11 -21 3 -48 8 -60 10 -43 9 -73 14 -107 18 -19 3 -46 7 -59
10 -14 3 -43 8 -65 11 -22 3 -65 10 -95 15 -89 15 -113 19 -159 25 -23 3 -46
7 -50 9 -4 3 -29 7 -57 10 -27 3 -58 7 -69 9 -30 7 -107 20 -130 23 -44 6
-137 21 -175 29 -13 2 -42 7 -65 10 -22 4 -119 20 -215 36 -96 17 -186 31
-200 33 -23 3 -70 11 -130 22 -14 2 -43 7 -65 10 -41 6 -75 11 -110 18 -11 2
-40 6 -65 10 -25 4 -56 9 -70 12 -14 2 -41 6 -60 9 -19 3 -44 7 -56 9 -12 2
-45 7 -74 11 -29 4 -63 10 -74 14 -12 5 -27 6 -33 4 -7 -3 -13 0 -13 6 0 5 8
8 18 6 27 -5 106 -13 192 -20 41 -4 86 -8 100 -10 14 -2 57 -7 95 -10 39 -3
86 -8 105 -10 19 -2 71 -6 115 -10 44 -3 94 -8 110 -10 37 -5 121 -13 200 -21
101 -9 210 -19 310 -30 28 -3 73 -7 100 -9 28 -3 73 -7 100 -10 68 -8 140 -15
200 -20 128 -10 192 -16 214 -20 13 -2 21 -1 17 2 -4 4 -12 8 -19 9 -7 1 -39
9 -72 17 -33 9 -71 18 -85 21 -14 3 -95 24 -180 46 -169 45 -182 48 -207 54
-10 2 -38 9 -63 15 -25 7 -55 14 -67 16 -12 3 -34 10 -48 15 -14 5 -25 7 -25
4 0 -2 -8 0 -18 5 -11 6 -30 12 -43 14 -13 3 -44 10 -69 17 -25 7 -52 13 -60
15 -8 2 -123 31 -255 65 -132 34 -248 63 -257 65 -9 2 -50 13 -90 24 -40 11
-188 49 -328 85 -140 35 -336 86 -435 111 -99 26 -187 48 -195 50 -9 2 -114
29 -235 60 -121 31 -227 58 -235 60 -8 2 -30 8 -47 14 -18 5 -33 8 -33 5 0 -3
-8 0 -18 5 -11 6 -30 12 -43 15 -13 2 -81 19 -151 37 l-128 32 5 211 c3 116 7
303 10 416 11 474 15 603 19 607 4 5 207 -57 251 -76 11 -5 81 -28 155 -51 74
-23 245 -78 380 -122 135 -44 261 -84 280 -90 19 -6 44 -14 55 -19 25 -10 187
-62 200 -65 6 -1 80 -25 165 -54 85 -28 160 -52 165 -54 16 -3 248 -78 270
-87 29 -12 524 -171 538 -173 7 -1 17 -4 22 -7 9 -5 206 -70 228 -75 4 -1 9
-3 12 -4 3 -1 8 -3 13 -4 14 -4 167 -54 186 -62 13 -5 17 -4 13 4 -4 6 -22 14
-40 18 -30 6 -43 11 -129 48 -20 9 -39 16 -43 16 -6 0 -312 112 -450 165 -33
12 -136 51 -230 85 -93 34 -242 89 -330 123 -88 33 -166 60 -172 60 -7 0 -13
4 -13 9 0 4 -6 8 -14 8 -7 0 -62 18 -122 41 -117 44 -233 87 -412 151 -62 22
-111 42 -109 44 2 2 30 -5 63 -17 32 -11 66 -22 74 -24 8 -2 35 -11 60 -20 25
-9 52 -18 60 -20 8 -2 15 -4 15 -5 0 -1 7 -3 15 -5 8 -1 69 -22 135 -45 66
-23 125 -43 130 -44 6 -2 17 -6 25 -9 8 -3 155 -51 325 -108 171 -56 316 -106
323 -112 6 -5 12 -7 12 -4 0 3 51 -12 113 -34 61 -22 119 -41 127 -43 8 -2 85
-27 170 -56 85 -28 160 -53 165 -54 6 -2 17 -6 25 -9 33 -13 320 -108 337
-112 10 -2 35 -10 55 -19 21 -9 43 -16 50 -16 15 0 -44 28 -152 71 -41 17 -88
36 -105 44 -16 7 -86 36 -155 65 -113 47 -155 65 -215 91 -11 4 -65 27 -119
49 -55 22 -106 45 -113 51 -7 7 -13 9 -13 6 0 -5 -43 12 -135 53 -11 4 -76 32
-145 60 -69 28 -134 55 -145 60 -25 11 -98 43 -105 45 -17 6 -76 30 -145 60
-91 39 -362 152 -475 197 -41 17 -79 35 -84 39 -6 5 -16 9 -23 9 -7 0 -36 11
-65 24 -29 13 -69 29 -88 36 -19 7 -39 17 -45 22 -9 8 14 1 90 -28 11 -4 22
-8 25 -9 3 -1 18 -7 33 -13 16 -7 31 -12 34 -12 3 0 19 -6 36 -14 45 -19 329
-126 347 -131 17 -3 177 -65 273 -104 12 -5 99 -37 192 -71 94 -34 184 -69
200 -78 17 -9 31 -15 32 -14 2 1 8 -1 15 -3 35 -12 265 -97 278 -102 8 -4 17
-7 20 -8 3 -1 19 -7 35 -14 17 -6 73 -28 125 -47 52 -19 111 -42 130 -50 19
-7 89 -34 155 -58 66 -24 137 -52 159 -61 21 -9 40 -14 43 -11 2 2 -5 7 -16
11 -12 3 -56 23 -99 43 -42 20 -79 36 -82 37 -10 0 -117 46 -225 96 -27 13
-52 23 -55 24 -6 0 -184 78 -250 108 -25 12 -47 22 -50 22 -9 3 -45 18 -98 41
-29 13 -54 24 -56 24 -3 0 -37 15 -78 34 -40 18 -113 50 -163 71 -49 21 -112
48 -140 61 -27 12 -95 41 -150 64 -55 23 -127 55 -160 70 -33 15 -153 67 -267
116 -113 49 -205 90 -203 92 3 3 235 -86 385 -148 25 -10 173 -68 330 -129
157 -61 293 -116 302 -121 10 -6 22 -10 27 -10 5 0 26 -8 47 -17 22 -9 41 -17
44 -18 16 -3 157 -60 164 -67 6 -4 16 -8 24 -8 8 0 28 -6 45 -14 18 -8 138
-56 267 -106 129 -50 244 -95 255 -100 11 -5 97 -39 190 -75 94 -36 221 -86
284 -111 62 -25 115 -43 117 -42 2 2 -74 43 -169 92 -161 83 -234 120 -542
281 -117 61 -271 140 -580 300 -82 43 -206 107 -275 143 -224 116 -362 188
-510 264 -309 160 -468 242 -545 282 -44 23 -83 45 -86 49 -3 5 -9 8 -13 8 -7
-1 -54 22 -231 114 -390 203 -407 211 -515 231 -68 13 -227 9 -335 -8z m1215
-1088 c8 -5 11 -10 5 -10 -5 0 -17 5 -25 10 -8 5 -10 10 -5 10 6 0 17 -5 25
-10z m-2855 -300 c3 -5 1 -10 -4 -10 -6 0 -11 5 -11 10 0 6 2 10 4 10 3 0 8
-4 11 -10z m1402 -892 c-3 -8 -6 -5 -6 6 -1 11 2 17 5 13 3 -3 4 -12 1 -19z
m3 -28 c0 -5 -5 -10 -11 -10 -5 0 -7 5 -4 10 3 6 8 10 11 10 2 0 4 -4 4 -10z"/>
<path d="M1576 6203 c-1 -2 -31 -5 -67 -8 -35 -2 -84 -7 -109 -10 -25 -2 -76
-7 -115 -10 -38 -3 -92 -8 -120 -11 -47 -4 -73 -7 -220 -19 -33 -3 -80 -8
-105 -10 -70 -7 -192 -17 -219 -19 -16 -1 -25 -9 -27 -21 -2 -11 -6 -33 -8
-50 -3 -16 -7 -41 -10 -55 -2 -14 -8 -47 -11 -75 -4 -27 -8 -59 -10 -70 -2
-11 -6 -40 -9 -65 -3 -25 -8 -56 -11 -70 -7 -37 -17 -113 -18 -128 0 -14 -28
-28 -70 -36 -58 -12 -182 -47 -188 -54 -8 -9 -29 -174 -23 -183 2 -4 28 -15
57 -25 28 -9 76 -26 105 -36 52 -19 53 -21 46 -51 -11 -51 -40 -84 -105 -119
-61 -32 -100 -73 -114 -115 -6 -23 -5 -23 82 -24 48 0 201 -2 338 -4 138 -3
396 -7 575 -10 912 -14 1044 -17 1051 -20 3 -3 -7 -48 -23 -102 -29 -100 -76
-266 -83 -293 -13 -58 -18 -76 -24 -85 -3 -5 -6 -12 -7 -15 -9 -50 -18 -81
-24 -85 -4 -2 -4 14 1 38 7 40 15 90 25 167 3 19 7 46 9 60 3 14 7 43 10 65 3
22 7 51 10 65 3 14 8 49 11 78 l7 52 -74 1 c-41 0 -146 2 -234 4 -160 3 -560
11 -1075 21 -151 3 -380 6 -509 7 -227 2 -234 1 -237 -18 -4 -26 -14 -115 -19
-185 -3 -30 -7 -69 -10 -85 -6 -42 -18 -183 -19 -224 -1 -23 4 -35 14 -36 9
-2 47 -5 85 -9 39 -4 79 -8 90 -10 11 -3 27 -5 35 -5 9 -1 16 -9 17 -18 1 -10
16 -74 33 -143 18 -69 33 -132 35 -140 2 -8 16 -62 30 -120 15 -58 28 -112 29
-120 4 -19 419 -19 3606 5 2777 20 3503 25 3778 27 133 0 240 3 237 6 -3 3
-130 7 -283 8 -152 2 -538 6 -857 9 -319 3 -769 8 -1000 11 -231 3 -431 5
-445 4 -14 -1 -29 -2 -35 -1 -5 0 -217 2 -470 5 -253 2 -755 8 -1115 11 -360
4 -704 7 -765 7 -60 1 -114 3 -118 5 -4 3 6 19 23 36 43 44 114 160 141 230
l22 58 56 -7 c110 -14 123 -12 133 21 20 74 29 136 29 225 2 218 -68 414 -198
555 -117 128 -290 182 -472 148 -80 -15 -84 -16 -116 -27 -81 -31 -148 -62
-194 -90 -37 -23 -63 -33 -85 -31 -17 2 -96 6 -176 10 -80 3 -174 8 -210 10
-36 2 -102 5 -147 6 -97 4 -99 7 -53 86 43 75 78 95 177 97 18 1 33 3 33 6 0
3 10 5 23 6 28 0 182 17 208 23 4 0 9 18 12 39 3 20 8 46 10 57 2 11 8 38 12
60 5 22 9 45 11 50 1 6 5 29 8 53 l7 42 -33 1 c-18 0 -49 2 -68 4 -19 2 -75 6
-125 9 -49 4 -121 9 -160 12 -60 5 -105 8 -173 13 -10 1 -12 15 -8 54 3 28 8
86 11 127 3 41 7 91 10 110 6 48 16 158 20 227 2 32 6 72 9 90 6 31 5 32 -30
30 -19 -1 -37 -3 -38 -4z m-111 -256 c-3 -45 -8 -107 -10 -137 -2 -30 -7 -98
-11 -150 -3 -52 -8 -120 -10 -150 -2 -30 -6 -89 -8 -130 -3 -41 -8 -120 -12
-175 -4 -55 -7 -112 -7 -127 -1 -32 -7 -35 -67 -33 l-45 1 2 39 c1 22 4 67 7
100 3 33 8 98 11 145 3 47 8 108 10 135 3 28 7 84 10 125 3 41 7 100 10 130 8
94 17 203 19 246 3 56 9 61 61 62 l46 1 -6 -82z m-222 65 c5 -1 6 -6 3 -10 -4
-7 -7 -38 -21 -237 -3 -38 -8 -95 -10 -125 -3 -30 -7 -87 -10 -127 -3 -39 -7
-93 -9 -120 -3 -26 -8 -91 -12 -143 -4 -52 -8 -108 -10 -125 -1 -16 -3 -40 -3
-52 -1 -21 -6 -23 -62 -23 l-61 0 6 103 c4 56 8 116 11 132 2 17 6 80 10 140
3 61 8 124 10 140 2 17 6 62 9 100 3 39 8 104 11 145 3 41 7 102 10 134 2 33
9 62 15 66 9 6 87 7 113 2z m-252 -15 c1 -17 -2 -86 -6 -127 -2 -19 -7 -78
-10 -130 -4 -52 -8 -113 -11 -135 -2 -22 -6 -76 -9 -120 -3 -44 -7 -104 -10
-133 -8 -89 -18 -215 -19 -250 -2 -40 -17 -51 -59 -45 -18 3 -40 5 -50 5 -18
-1 -18 14 -2 178 2 25 7 79 10 120 3 41 8 95 11 120 3 25 7 79 9 120 3 41 7
95 10 120 2 25 7 77 10 115 10 123 14 155 19 163 8 13 106 12 107 -1z m-220
-42 c-8 -103 -10 -120 -11 -120 -1 0 -3 -16 -5 -35 -2 -19 -7 -62 -10 -95 -4
-33 -8 -80 -10 -105 -4 -39 -9 -89 -20 -180 -1 -14 -6 -56 -9 -95 -4 -38 -9
-88 -12 -110 -2 -22 -6 -61 -8 -87 -2 -26 -7 -51 -10 -56 -3 -5 -27 -8 -53 -7
-55 1 -53 -4 -38 120 4 39 9 84 11 100 1 17 5 46 8 65 6 36 14 103 21 180 4
42 10 91 20 165 6 46 28 226 31 260 1 17 3 32 3 35 1 3 22 5 48 5 l48 0 -4
-40z m1975 -1219 c57 -37 108 -116 120 -187 18 -113 7 -205 -35 -289 -91 -180
-277 -188 -360 -17 -35 72 -41 99 -42 185 -1 178 109 331 237 328 30 -1 63 -9
80 -20z m-1208 -470 c42 -3 120 -9 173 -12 53 -3 104 -7 113 -8 9 -1 31 -27
49 -57 18 -30 59 -94 89 -144 31 -49 60 -102 63 -117 l7 -27 -133 5 c-74 2
-181 7 -239 9 -58 3 -186 7 -285 10 -99 4 -181 7 -182 9 -2 1 13 36 33 77 20
40 54 112 76 159 22 47 44 90 49 96 9 11 40 11 187 0z"/>
<path d="M2640 4603 c-45 -18 -91 -113 -91 -187 0 -182 161 -242 236 -89 71
146 -22 324 -145 276z"/>
<path d="M2160 6000 c0 -6 7 -10 15 -10 8 0 15 2 15 4 0 2 -7 6 -15 10 -8 3
-15 1 -15 -4z"/>
<path d="M1868 5783 c7 -3 16 -2 19 1 4 3 -2 6 -13 5 -11 0 -14 -3 -6 -6z"/>
<path d="M8130 5266 c0 -2 7 -7 16 -10 8 -3 12 -2 9 4 -6 10 -25 14 -25 6z"/>
<path d="M8030 3808 c0 -4 4 -8 9 -8 6 0 12 4 15 8 3 5 -1 9 -9 9 -8 0 -15 -4
-15 -9z"/>
<path d="M8070 3808 c0 -4 4 -8 9 -8 6 0 12 4 15 8 3 5 -1 9 -9 9 -8 0 -15 -4
-15 -9z"/>
<path d="M8110 3812 c0 -4 10 -9 22 -9 18 -2 20 0 8 7 -18 12 -30 13 -30 2z"/>
<path d="M8166 3812 c-3 -5 1 -9 9 -9 8 0 12 4 9 9 -3 4 -7 8 -9 8 -2 0 -6 -4
-9 -8z"/>
<path d="M3964 3029 c-147 -19 -266 -104 -328 -235 -56 -118 -49 -273 17 -384
78 -130 205 -202 357 -201 95 1 112 4 185 41 172 85 259 266 219 457 -17 85
-57 155 -124 216 -90 82 -209 121 -326 106z m122 -134 c78 -14 172 -105 195
-189 18 -63 13 -148 -12 -206 -26 -61 -98 -129 -160 -151 -66 -23 -156 -18
-222 14 -98 48 -146 123 -154 241 -4 62 -2 79 21 131 38 85 110 147 186 160
19 3 36 8 38 9 4 4 64 -1 108 -9z"/>
<path d="M1275 2621 l0 -396 65 0 65 0 1 257 c0 142 2 260 5 262 4 4 97 -124
159 -218 47 -72 116 -172 121 -176 3 -3 25 -33 48 -67 l44 -63 51 0 51 0 0
393 c1 259 -3 394 -10 399 -5 4 -35 7 -65 7 l-56 -2 1 -236 c0 -130 -2 -251
-4 -269 l-3 -33 -19 30 c-10 17 -69 103 -132 193 -62 90 -135 195 -162 233
-26 39 -53 73 -59 77 -6 4 -31 7 -56 6 l-45 -1 0 -396z"/>
<path d="M2264 3012 c-11 -7 -17 -25 -170 -452 -53 -146 -102 -279 -110 -297
-8 -17 -14 -34 -14 -37 0 -4 32 -6 71 -4 l72 3 27 75 27 75 170 3 169 2 28
-80 28 -80 69 0 c38 0 69 4 69 9 0 4 -9 30 -19 57 -23 59 -247 680 -255 710
-5 18 -15 21 -79 22 -39 1 -77 -2 -83 -6z m104 -235 c13 -41 38 -115 57 -165
19 -51 35 -96 35 -100 0 -4 -55 -7 -122 -7 -71 1 -122 5 -121 11 1 5 25 74 53
154 28 80 54 153 57 163 9 30 18 19 41 -56z"/>
<path d="M2670 2954 l0 -64 93 1 c50 0 101 0 112 0 20 -1 20 -7 20 -333 l0
-333 65 0 65 0 1 328 c0 180 3 330 7 333 3 3 53 5 111 5 l106 -1 0 64 0 63
-290 0 -290 0 0 -63z"/>
<path d="M3349 3006 c0 -12 0 -670 1 -743 l0 -43 64 0 64 0 1 399 1 398 -65 0
c-40 0 -65 -4 -66 -11z"/>
<path d="M4546 3011 c-1 -3 -2 -181 -2 -396 l1 -390 65 -3 65 -3 0 266 c0 146
2 265 5 265 4 0 71 -94 105 -148 6 -9 14 -21 18 -26 11 -14 85 -120 175 -251
l74 -105 49 0 c32 0 49 4 50 13 0 6 2 186 2 398 l2 386 -66 0 -67 -1 2 -268
c1 -202 -2 -264 -10 -255 -7 7 -85 118 -175 247 -89 129 -169 245 -178 256
-13 17 -26 22 -64 21 -26 0 -49 -3 -51 -6z"/>
<path d="M5260 3012 c1 -12 17 -72 70 -257 28 -99 53 -187 55 -195 2 -8 4 -15
5 -15 1 0 3 -7 5 -15 2 -12 58 -212 81 -293 5 -15 16 -17 81 -15 l76 3 24 80
c13 44 31 105 41 135 9 30 16 57 17 60 0 9 27 94 41 133 8 20 12 37 9 37 -3 0
1 16 9 35 9 20 15 36 15 38 0 1 3 15 7 31 6 25 20 -14 80 -225 41 -139 76
-263 78 -274 11 -53 14 -55 91 -55 77 0 81 2 89 41 2 13 9 35 14 49 5 14 10
27 10 30 0 6 25 97 52 190 11 36 42 144 69 240 27 96 54 190 60 208 5 17 7 33
3 34 -4 0 -35 2 -70 3 l-62 2 -11 -41 c-24 -92 -60 -223 -71 -261 -6 -22 -12
-44 -14 -50 -14 -66 -69 -255 -74 -255 -4 0 -7 6 -7 13 -1 10 -23 88 -89 312
-8 28 -17 57 -19 65 -12 47 -36 131 -47 170 l-14 45 -62 2 c-34 1 -62 -2 -63
-5 -1 -12 -7 -33 -54 -192 -46 -156 -51 -173 -59 -210 -3 -11 -8 -25 -11 -30
-4 -6 -8 -21 -11 -33 -10 -55 -42 -141 -48 -127 -8 19 -79 279 -92 335 -2 11
-19 74 -37 140 l-32 120 -68 2 c-37 1 -67 -1 -67 -5z"/>
<path d="M6450 2618 l0 -398 65 0 65 0 0 53 c1 70 1 662 0 709 l0 38 -65 -2
-65 -2 0 -398z"/>
<path d="M6746 3012 c-3 -3 -6 -183 -6 -399 l0 -394 185 1 c242 2 304 19 393
109 160 164 155 434 -11 591 -29 28 -120 79 -157 88 -26 7 -398 11 -404 4z
m403 -138 c24 -9 59 -33 78 -52 33 -34 80 -112 67 -112 -4 0 -2 -6 4 -12 5 -7
9 -44 8 -83 -3 -120 -59 -210 -154 -251 -35 -15 -238 -27 -270 -16 -10 3 -12
63 -11 271 1 146 3 268 4 271 7 13 232 -1 274 -16z"/>
<path d="M7556 3010 c-2 -3 -2 -180 -2 -395 l1 -390 240 0 240 0 0 60 0 60
-172 0 c-145 0 -172 2 -175 15 -3 13 -3 159 1 193 1 8 21 11 68 10 38 -1 70
-2 73 -4 3 -1 10 0 15 1 6 1 42 2 82 2 47 -1 72 3 75 11 4 10 3 82 -1 105 0 4
-67 7 -148 6 -82 0 -153 1 -158 3 -9 3 -12 116 -6 193 1 13 26 15 170 13 l170
-2 3 27 c2 15 1 44 0 64 l-4 37 -235 -2 c-129 0 -236 -3 -237 -7z"/>
</g>
</svg>
